<svg width="63" height="63" viewBox="0 0 63 63" fill="none" xmlns="http://www.w3.org/2000/svg">
<path fill-rule="evenodd" clip-rule="evenodd" d="M5.25 15.75C5.25 11.4008 8.77576 7.875 13.125 7.875H49.875C54.2242 7.875 57.75 11.4008 57.75 15.75V52.5C57.75 56.8492 54.2242 60.375 49.875 60.375H13.125C8.77576 60.375 5.25 56.8492 5.25 52.5V15.75ZM13.125 13.125C11.6753 13.125 10.5 14.3003 10.5 15.75V52.5C10.5 53.9497 11.6753 55.125 13.125 55.125H49.875C51.3247 55.125 52.5 53.9497 52.5 52.5V15.75C52.5 14.3003 51.3247 13.125 49.875 13.125H13.125Z" fill="#C4CAE8"/>
<path fill-rule="evenodd" clip-rule="evenodd" d="M42 2.625C43.4497 2.625 44.625 3.80025 44.625 5.25V15.75C44.625 17.1997 43.4497 18.375 42 18.375C40.5503 18.375 39.375 17.1997 39.375 15.75V5.25C39.375 3.80025 40.5503 2.625 42 2.625Z" fill="#C4CAE8"/>
<path fill-rule="evenodd" clip-rule="evenodd" d="M21 2.625C22.4497 2.625 23.625 3.80025 23.625 5.25V15.75C23.625 17.1997 22.4497 18.375 21 18.375C19.5503 18.375 18.375 17.1997 18.375 15.75V5.25C18.375 3.80025 19.5503 2.625 21 2.625Z" fill="#C4CAE8"/>
<path fill-rule="evenodd" clip-rule="evenodd" d="M5.25 26.25C5.25 24.8003 6.42525 23.625 7.875 23.625H55.125C56.5747 23.625 57.75 24.8003 57.75 26.25C57.75 27.6997 56.5747 28.875 55.125 28.875H7.875C6.42525 28.875 5.25 27.6997 5.25 26.25Z" fill="#C4CAE8"/>
</svg>
