<svg width="372" height="81" viewBox="0 0 372 81" fill="none" xmlns="http://www.w3.org/2000/svg" preserveAspectRatio="none">
<mask id="mask0" style="mask-type:alpha" maskUnits="userSpaceOnUse" x="0" y="0" width="372" height="81">
<path d="M0 20.4766C0 9.43094 8.95431 0.476624 20 0.476624H352C363.046 0.476624 372 9.43093 372 20.4766V80.869H0V20.4766Z" fill="#E6EDFE"/>
</mask>
<g mask="url(#mask0)">
<rect y="0.476624" width="372" height="101.83" fill="#B1AFFF"/>
<path opacity="0.3" d="M295.928 45.2009C298.474 42.7234 310.679 30.353 308.353 14.1311C307.597 9.00804 305.541 4.11077 302.32 -0.235826M87.2201 49.0164C86.7375 49.5727 79.3101 57.8901 66.9149 57.484C55.8148 57.1111 49.8661 50.057 49.1797 49.2159" stroke="#F1F5FD" stroke-width="2" stroke-linecap="round" stroke-linejoin="round" stroke-dasharray="9 9"/>
<ellipse opacity="0.15" cx="372" cy="152.686" rx="132.407" ry="112.549" fill="white"/>
<ellipse opacity="0.15" cx="-83.2271" cy="61.5749" rx="132.407" ry="112.549" fill="white"/>
<path opacity="0.15" d="M0 0.476624L293.186 -35.9679C293.186 -35.9679 187.261 11.7316 147.539 16.5551C107.817 21.3786 83.2271 13.8754 66.8339 41.7447C50.4407 69.6141 0 47.6402 0 47.6402V0.476624Z" fill="white"/>
<path opacity="0.3" d="M313.363 63.7186C311.922 60.4187 312.852 61.2044 308.949 59.9473C312.852 58.7295 311.922 59.5152 313.363 56.2153C314.803 59.5152 313.874 58.7295 317.776 59.9473C313.92 61.2044 314.849 60.4187 313.363 63.7186Z" fill="#F1F5FD"/>
<path opacity="0.3" d="M52.9628 41.9803L53.0066 37.541C53.0079 37.3754 53.0966 37.217 53.2534 37.1007C53.4101 36.9844 53.6219 36.9198 53.8421 36.9212L58.4438 36.9472C58.664 36.9482 58.8746 37.0149 59.0291 37.1329C59.1837 37.2508 59.2695 37.4101 59.2677 37.5757L59.2239 42.015C59.222 42.1212 59.1373 42.2167 59.0077 42.2587C58.878 42.3007 58.7277 42.2814 58.6238 42.2095L56.3483 40.6053C56.2122 40.5107 56.0022 40.5107 55.866 40.6053L53.5582 42.1852C53.4529 42.2578 53.3001 42.2759 53.1702 42.2312C53.0403 42.1865 52.9586 42.0877 52.9628 41.9803Z" fill="#F1F5FD"/>
<path opacity="0.3" d="M289.163 18.0394H286.064L284.517 20.225L286.064 22.4105H289.163L290.714 20.225L289.163 18.0394Z" fill="#F1F5FD"/>
</g>
</svg>
