<svg width="70" height="84" viewBox="0 0 70 84" fill="none" xmlns="http://www.w3.org/2000/svg">
<path d="M20.7592 78.112C23.1112 78.112 24.1472 76.474 24.1472 74.22V71.42C24.1472 69.46 22.9012 68.088 20.9832 68.088C18.8832 68.088 17.8052 69.474 17.8052 71.392C17.8052 73.366 18.9532 74.584 20.8152 74.584C21.9072 74.584 22.6072 74.024 22.9572 73.66V74.556C22.9572 76.04 22.2292 76.978 20.8152 76.978C20.1572 76.978 19.5412 76.782 19.0232 76.558C18.9252 76.516 18.8272 76.488 18.7292 76.488C18.4212 76.488 18.1832 76.726 18.1832 77.034C18.1832 77.258 18.3092 77.426 18.5192 77.538C18.9812 77.804 19.8772 78.112 20.7592 78.112ZM20.9832 73.534C19.8072 73.534 18.9952 72.862 18.9952 71.392C18.9952 69.908 19.8072 69.222 20.9832 69.222C22.1732 69.222 22.9572 69.936 22.9572 71.42V72.554C22.5512 73.072 21.8092 73.534 20.9832 73.534ZM27.2338 78.112C27.5418 78.112 27.7938 77.86 27.7938 77.552V71.28H29.3478C29.6138 71.28 29.8378 71.056 29.8378 70.79C29.8378 70.524 29.6138 70.3 29.3478 70.3H27.7938V69.768C27.7938 69.012 28.0598 68.452 28.9558 68.452C29.2078 68.452 29.4038 68.522 29.5858 68.522C29.8658 68.522 30.0898 68.298 30.0898 68.032C30.0898 67.822 29.9638 67.654 29.7678 67.57C29.5298 67.472 29.2218 67.416 28.9278 67.416C27.4158 67.416 26.6738 68.368 26.6738 70.006V70.3L25.6798 70.384C25.4418 70.398 25.2598 70.594 25.2598 70.832C25.2598 71.084 25.4558 71.28 25.7078 71.28H26.6738V77.552C26.6738 77.86 26.9258 78.112 27.2338 78.112ZM32.4838 78.112C32.7918 78.112 33.0438 77.86 33.0438 77.552V71.28H34.5978C34.8638 71.28 35.0878 71.056 35.0878 70.79C35.0878 70.524 34.8638 70.3 34.5978 70.3H33.0438V69.768C33.0438 69.012 33.3098 68.452 34.2058 68.452C34.4578 68.452 34.6538 68.522 34.8358 68.522C35.1158 68.522 35.3398 68.298 35.3398 68.032C35.3398 67.822 35.2138 67.654 35.0178 67.57C34.7798 67.472 34.4718 67.416 34.1778 67.416C32.6658 67.416 31.9238 68.368 31.9238 70.006V70.3L30.9298 70.384C30.6918 70.398 30.5098 70.594 30.5098 70.832C30.5098 71.084 30.7058 71.28 30.9578 71.28H31.9238V77.552C31.9238 77.86 32.1758 78.112 32.4838 78.112ZM37.1038 78.112C37.4118 78.112 37.6638 77.86 37.6638 77.552V67.948C37.6638 67.64 37.4118 67.388 37.1038 67.388C36.7958 67.388 36.5578 67.598 36.5438 67.948V77.552C36.5438 77.86 36.7958 78.112 37.1038 78.112ZM39.8248 78.112C39.9928 78.112 40.1608 78.028 40.2588 77.916C40.3008 77.874 40.3428 77.818 40.3848 77.734L41.9108 75.032H41.9668L43.4648 77.734C43.5068 77.818 43.5488 77.874 43.5908 77.916C43.6888 78.028 43.8568 78.112 44.0248 78.112C44.3328 78.112 44.5988 77.846 44.5988 77.538C44.5988 77.412 44.5568 77.328 44.5148 77.244L42.5828 74.052L44.4168 71.098C44.4728 71 44.5288 70.888 44.5288 70.762C44.5288 70.454 44.2768 70.188 43.9688 70.188C43.7168 70.188 43.5488 70.342 43.4228 70.552L41.9108 73.114H41.8548L40.4268 70.552C40.3008 70.342 40.1328 70.188 39.8948 70.188C39.5448 70.188 39.3208 70.454 39.3208 70.762C39.3208 70.888 39.3768 71 39.4328 71.098L41.2388 74.108L39.3348 77.244C39.2928 77.328 39.2508 77.412 39.2508 77.538C39.2508 77.846 39.5168 78.112 39.8248 78.112ZM49.0509 78.112C51.0389 78.112 52.1309 76.642 52.1309 74.584V71.616C52.1309 69.558 51.0389 68.088 49.0509 68.088C47.0629 68.088 45.9709 69.558 45.9709 71.616V74.584C45.9709 76.642 47.0629 78.112 49.0509 78.112ZM49.0509 76.978C47.7629 76.978 47.1609 76.068 47.1609 74.514V71.686C47.1609 70.132 47.7629 69.222 49.0509 69.222C50.3389 69.222 50.9409 70.132 50.9409 71.686V74.514C50.9409 76.068 50.3389 76.978 49.0509 76.978Z" fill="#C4CAE8"/>
<rect x="0.5" y="63.5" width="69" height="20" rx="10" stroke="#C4CAE8"/>
<path d="M37 9V11.625V9ZM52.75 40.5H58H52.75ZM42.25 40.5H37V51L42.25 40.5ZM37 22.125V30V22.125ZM37 30H37.0263H37ZM37 30H47.5263H37ZM47.5 51H58H47.5ZM16 30H26.5H16ZM58 30H58.0263H58ZM18.625 19.5H23.875C24.5712 19.5 25.2389 19.2234 25.7312 18.7312C26.2234 18.2389 26.5 17.5712 26.5 16.875V11.625C26.5 10.9288 26.2234 10.2611 25.7312 9.76885C25.2389 9.27656 24.5712 9 23.875 9H18.625C17.9288 9 17.2611 9.27656 16.7688 9.76885C16.2766 10.2611 16 10.9288 16 11.625V16.875C16 17.5712 16.2766 18.2389 16.7688 18.7312C17.2611 19.2234 17.9288 19.5 18.625 19.5ZM50.125 19.5H55.375C56.0712 19.5 56.7389 19.2234 57.2312 18.7312C57.7234 18.2389 58 17.5712 58 16.875V11.625C58 10.9288 57.7234 10.2611 57.2312 9.76885C56.7389 9.27656 56.0712 9 55.375 9H50.125C49.4288 9 48.7611 9.27656 48.2688 9.76885C47.7766 10.2611 47.5 10.9288 47.5 11.625V16.875C47.5 17.5712 47.7766 18.2389 48.2688 18.7312C48.7611 19.2234 49.4288 19.5 50.125 19.5ZM18.625 51H23.875C24.5712 51 25.2389 50.7234 25.7312 50.2312C26.2234 49.7389 26.5 49.0712 26.5 48.375V43.125C26.5 42.4288 26.2234 41.7611 25.7312 41.2688C25.2389 40.7766 24.5712 40.5 23.875 40.5H18.625C17.9288 40.5 17.2611 40.7766 16.7688 41.2688C16.2766 41.7611 16 42.4288 16 43.125V48.375C16 49.0712 16.2766 49.7389 16.7688 50.2312C17.2611 50.7234 17.9288 51 18.625 51Z" stroke="#C4CAE8" stroke-width="5" stroke-linecap="round" stroke-linejoin="round"/>
</svg>
