<svg width="30" height="30" viewBox="0 0 30 30" fill="none" xmlns="http://www.w3.org/2000/svg">
<circle cx="15" cy="15" r="13.5" fill="white" stroke="white" stroke-width="3"/>
<path d="M15 3C8.38346 3 3 8.38346 3 15C3 21.6165 8.38346 27 15 27C21.6165 27 27 21.6165 27 15C27 8.38346 21.6165 3 15 3ZM21.7068 11.8421L14.0376 19.4511C13.5865 19.9023 12.8647 19.9323 12.3835 19.4812L8.32331 15.782C7.84211 15.3308 7.81203 14.5789 8.23308 14.0977C8.68421 13.6165 9.43609 13.5865 9.91729 14.0376L13.1353 16.985L19.9925 10.1278C20.4737 9.64662 21.2256 9.64662 21.7068 10.1278C22.188 10.609 22.188 11.3609 21.7068 11.8421Z" fill="#52D2BC"/>
</svg>
