<svg width="95" height="83" viewBox="0 0 95 83" fill="none" xmlns="http://www.w3.org/2000/svg">
<path d="M7.5 83C11.6421 83 15 79.6421 15 75.5C15 71.3579 11.6421 68 7.5 68C3.35786 68 0 71.3579 0 75.5C0 79.6421 3.35786 83 7.5 83Z" fill="#FFBAC6"/>
<path d="M11.5 74C13.433 74 15 72.6569 15 71C15 69.3431 13.433 68 11.5 68C9.567 68 8 69.3431 8 71C8 72.6569 9.567 74 11.5 74Z" fill="#DBF8F3"/>
<path opacity="0.32" d="M81.7698 23.4106L80.48 21.1763L80.3755 18.5934C80.3273 17.3128 79.6008 16.1547 78.4687 15.5539L76.6735 14.6059L75.6591 12.863C75.0204 11.7512 73.8354 11.0663 72.5532 11.0679H69.9841L67.7008 9.85839C66.5684 9.2595 65.2025 9.30999 64.1173 9.99084L62.3988 11.0679H60.37C59.0871 11.0672 57.9015 11.7517 57.2606 12.863L55.9743 15.0869L53.7852 16.4567C52.7019 17.1364 52.0609 18.3401 52.1015 19.6182L52.1782 21.6434L51.1638 23.3862C50.5225 24.497 50.5225 25.8656 51.1638 26.9764L52.4536 29.2107L52.5477 31.818C52.5959 33.0987 53.3224 34.2568 54.4545 34.8575L56.2462 35.8056L57.2606 37.5484C57.9015 38.6598 59.0871 39.3443 60.37 39.3435H62.5104V45.1472C62.5111 45.3373 62.6214 45.51 62.7937 45.5905C62.9659 45.671 63.1692 45.645 63.3156 45.5236L66.3588 42.9861C66.5419 42.8313 66.81 42.8313 66.9932 42.9861L69.8725 45.4853C70.0182 45.6107 70.2236 45.6397 70.3983 45.5595C70.573 45.4792 70.6849 45.3045 70.6847 45.1123V39.3575H72.5671C73.8494 39.3591 75.0344 38.6742 75.673 37.5624L76.9663 35.3246L79.1554 33.9547C80.241 33.273 80.8802 32.0637 80.8321 30.7828L80.7589 28.7576L81.7733 27.0148C82.419 25.8998 82.4176 24.5243 81.7698 23.4106Z" fill="#6534FF"/>
<path d="M71.2143 44.6935L68.4307 42.1145C68.2539 41.9548 67.995 41.9548 67.8181 42.1145L64.8797 44.7331C64.7384 44.8584 64.5421 44.8852 64.3758 44.8021C64.2094 44.719 64.1029 44.5409 64.1022 44.3446V37.5103C64.0967 37.3733 64.1434 37.2398 64.2315 37.1402C64.3196 37.0406 64.4418 36.9833 64.57 36.9815H71.524C71.7848 36.9835 71.9952 37.21 71.9952 37.4887V44.3231C71.9919 44.5188 71.8827 44.6948 71.7153 44.7743C71.5478 44.8538 71.3524 44.8223 71.2143 44.6935Z" fill="#62BCF9"/>
<path opacity="0.32" d="M68.4427 40.1285C70.8405 40.1285 72.7843 38.1911 72.7843 35.8012C72.7843 33.4114 70.8405 31.474 68.4427 31.474C66.0449 31.474 64.1011 33.4114 64.1011 35.8012C64.1011 38.1911 66.0449 40.1285 68.4427 40.1285Z" fill="#6534FF"/>
<path d="M83.3492 21.8442L82.0591 19.6154L81.965 17.0388C81.9168 15.7613 81.1901 14.606 80.0577 14.0067L78.2656 13.0609L77.2509 11.3224C76.6099 10.2137 75.424 9.53091 74.1408 9.53162H71.5571L69.2768 8.28333C68.1428 7.686 66.7756 7.73635 65.6889 8.41546L63.97 9.50033H61.9407C60.6585 9.50015 59.4739 10.183 58.834 11.2911L57.5404 13.5199L55.3508 14.8899C54.2644 15.5695 53.6248 16.7761 53.6736 18.0541L53.7573 20.0744L52.7427 21.8129C52.1012 22.921 52.1012 24.2863 52.7427 25.3944L54.0328 27.6232L54.106 30.2137C54.152 31.491 54.8777 32.6467 56.0098 33.2458L57.8054 34.1916L58.8201 35.9302C59.461 37.0372 60.6449 37.7197 61.9267 37.7209H64.5104L66.7942 38.924C67.926 39.5239 69.293 39.4749 70.3786 38.7953L72.0975 37.7209H74.1268C75.4097 37.7202 76.5949 37.0377 77.237 35.9302L78.5271 33.6978L80.7167 32.3313C81.8023 31.6506 82.4425 30.4451 82.3973 29.1671L82.3485 27.1573L83.3632 25.4187C83.9977 24.3099 83.9924 22.9481 83.3492 21.8442Z" fill="#BBC4EF"/>
<path d="M81.4673 16.2153C81.4194 14.9371 80.6856 13.781 79.542 13.1821L77.7329 12.2325L76.7086 10.4932C76.0601 9.38605 74.8635 8.70459 73.569 8.7053H70.9609L68.659 7.49827C67.5149 6.89967 66.1348 6.94871 65.0372 7.62698L63.302 8.7053H61.2535C59.963 8.70224 58.7684 9.37804 58.1175 10.4793L56.8116 12.7125L54.6048 14.083C53.5068 14.7604 52.8595 15.9667 52.9083 17.2449L52.9822 19.2694L51.9579 21.0086C51.3102 22.1159 51.3102 23.4807 51.9579 24.588L53.2602 26.8351L53.3553 29.4092C53.4017 30.6869 54.1343 31.8431 55.277 32.4424L57.0897 33.3885L58.1139 35.1278C58.7598 36.2363 59.9557 36.9194 61.25 36.9192H63.8581L66.1635 38.1262C67.3096 38.7376 68.6999 38.6924 69.8029 38.0079" stroke="#6534FF" stroke-linecap="round" stroke-linejoin="round"/>
<path opacity="0.32" d="M82.0762 19.7414L81.9835 17.1805C81.936 15.9107 81.22 14.7624 80.1042 14.1667L78.3382 13.2267L77.3384 11.4986C76.7068 10.3967 75.5383 9.71804 74.2738 9.71875H71.728L71.2057 9.44226C71.2871 10.507 71.3089 11.5754 71.271 12.6426C71.2916 13.9559 71.5218 15.3591 72.4151 16.3164C72.8989 16.7595 73.4107 17.1705 73.9474 17.5468C75.3952 18.7736 76.142 20.6441 75.9401 22.5374C75.7443 24.1998 74.8166 25.7308 74.7651 27.4036C74.7101 29.1662 75.6275 30.832 75.6756 32.5877C75.7055 33.6767 75.4007 34.7484 74.8029 35.6567C74.315 36.3963 73.6416 37.0115 73.1881 37.7684H74.2738C75.5379 37.7677 76.7058 37.0894 77.3384 35.9885L78.6096 33.7697L80.7672 32.4115C81.8369 31.7348 82.4678 30.5367 82.4232 29.2664L82.3614 27.255L83.3612 25.5269C83.9933 24.4255 83.9933 23.0685 83.3612 21.9671L82.0762 19.7414Z" fill="#6534FF"/>
<path opacity="0.32" d="M68.0489 35.4074C74.1519 35.4074 79.0994 34.7028 79.0994 33.8337C79.0994 32.9646 74.1519 32.26 68.0489 32.26C61.9458 32.26 56.9984 32.9646 56.9984 33.8337C56.9984 34.7028 61.9458 35.4074 68.0489 35.4074Z" fill="#6534FF"/>
<path d="M83.1729 24.1516C82.8518 24.4965 82.3943 24.6943 81.9136 24.6959H55.7584C55.2788 24.6942 54.8224 24.4964 54.5027 24.1516C54.1692 23.788 53.6842 23.5879 53.1812 23.6063C52.6782 23.6248 52.2104 23.8599 51.9065 24.2468L51.8148 24.3659C51.5005 24.7656 51.3951 25.2828 51.5291 25.7674L53.0917 31.3803C53.3646 32.3629 54.2874 33.0464 55.3422 33.0472H82.3334C83.3872 33.0461 84.3088 32.3624 84.5803 31.3803L86.1464 25.7674C86.2804 25.2828 86.175 24.7656 85.8607 24.3659L85.769 24.2468C85.4644 23.861 84.9968 23.6267 84.4942 23.6083C83.9917 23.5899 83.507 23.7892 83.1729 24.1516Z" fill="#62BCF9"/>
<path d="M53.7167 24.15C53.3823 23.7867 52.8964 23.5872 52.3928 23.6063C51.8892 23.6254 51.4211 23.8612 51.1174 24.2486L51.0256 24.3643C50.7114 24.7643 50.6059 25.2813 50.7395 25.7661L52.304 31.3833C52.5786 32.3647 53.5022 33.0467 54.5573 33.0471H81.5821C82.6371 33.0467 83.5608 32.3647 83.8353 31.3833M55.4189 24.3919H64.891M74.3632 33.0471H68.8377M64.891 34.6207H66.4697M71.9951 40.9154V43.2759M58.5763 14.163L64.1017 11.0156" stroke="#6534FF" stroke-linecap="round" stroke-linejoin="round"/>
<path d="M12.0178 30.9942C14.0927 40.5798 19.1764 49.2501 26.5352 55.754C32.6612 61.0696 40.0995 64.6686 48.0924 66.1843" stroke="#E6EDFE" stroke-width="2" stroke-linecap="round" stroke-linejoin="round" stroke-dasharray="9 9"/>
</svg>
