<svg width="17" height="17" viewBox="0 0 17 17" fill="none" xmlns="http://www.w3.org/2000/svg">
<path fill-rule="evenodd" clip-rule="evenodd" d="M8.5 17C3.80558 17 0 13.1944 0 8.5C0 3.80558 3.80558 0 8.5 0C13.1944 0 17 3.80558 17 8.5C17 8.989 16.6036 9.38542 16.1146 9.38542C15.6256 9.38542 15.2292 8.989 15.2292 8.5C15.2292 4.78358 12.2164 1.77083 8.5 1.77083C4.78358 1.77083 1.77083 4.78358 1.77083 8.5C1.77083 12.2164 4.78358 15.2292 8.5 15.2292C8.989 15.2292 9.38542 15.6256 9.38542 16.1146C9.38542 16.6036 8.989 17 8.5 17Z" fill="#6873A4"/>
</svg>
