<svg width="1280" height="157" viewBox="0 0 1280 157" fill="none" xmlns="http://www.w3.org/2000/svg">
<mask id="mask0" mask-type="alpha" maskUnits="userSpaceOnUse" x="0" y="0" width="1280" height="157">
<path d="M0 0H1280V78C1280 78 1092.5 156.5 640 156.5C187.5 156.5 0 78 0 78V0Z" fill="#E6EDFE"/>
</mask>
<g mask="url(#mask0)">
<rect width="1280" height="373" fill="#ADDEFF"/>
<circle opacity="0.15" cx="1232" cy="245" r="212" fill="white"/>
<circle opacity="0.15" cx="72.5" cy="255.5" r="226.5" fill="white"/>
<path opacity="0.15" d="M-58 -16.0109L810 -143C810 -143 496.4 23.2063 378.8 40.0137C261.2 56.8211 188.4 30.6763 139.867 127.786C91.3333 224.895 -58 148.328 -58 148.328V-16.0109Z" fill="white"/>
<g opacity="0.5">
<path d="M859.077 91.1924C864.814 84.6241 892.319 51.8273 887.077 8.81923C885.375 -4.7632 880.74 -17.747 873.481 -29.2708M388.729 101.308C387.641 102.783 370.902 124.834 342.968 123.758C317.953 122.769 304.547 104.067 303 101.837" stroke="#F1F5FD" stroke-width="3" stroke-linecap="round" stroke-linejoin="round" stroke-dasharray="9 9"/>
<path d="M1138 77C1135.72 70.8429 1137.19 72.3089 1131 69.9634C1137.19 67.6911 1135.72 69.1571 1138 63C1140.28 69.1571 1138.81 67.6911 1145 69.9634C1138.88 72.3089 1140.36 70.8429 1138 77Z" fill="#F1F5FD"/>
<path d="M256 59.1594L256.098 46.7348C256.1 46.2713 256.298 45.8278 256.646 45.5024C256.994 45.1769 257.464 44.9962 257.953 45.0001L268.171 45.073C268.659 45.0755 269.127 45.2624 269.47 45.5925C269.813 45.9225 270.004 46.3684 270 46.8319L269.903 59.2566C269.899 59.5538 269.71 59.8209 269.423 59.9385C269.135 60.0561 268.801 60.0022 268.57 59.8008L263.518 55.311C263.215 55.0461 262.749 55.0461 262.447 55.311L257.322 59.7328C257.089 59.936 256.749 59.9867 256.461 59.8617C256.173 59.7366 255.991 59.46 256 59.1594Z" fill="#F1F5FD"/>
<path d="M705.245 19H697.745L694 25L697.745 31H705.245L709 25L705.245 19Z" fill="#F1F5FD"/>
</g>
</g>
</svg>
