<svg width="40" height="40" viewBox="0 0 40 40" fill="none" xmlns="http://www.w3.org/2000/svg">
<path fill-rule="evenodd" clip-rule="evenodd" d="M20 40C31.0457 40 40 31.0457 40 20C40 8.9543 31.0457 0 20 0C8.9543 0 0 8.9543 0 20C0 31.0457 8.9543 40 20 40ZM22.4533 22.48C23.2133 22.48 23.8133 21.8133 23.8133 21C23.8133 20.1867 23.2133 19.52 22.4533 19.52C21.6933 19.52 21.0933 20.1867 21.0933 21C21.0933 21.8133 21.7067 22.48 22.4533 22.48ZM16.2267 21C16.2267 20.1867 16.8267 19.52 17.5867 19.52C18.3467 19.52 18.96 20.1867 18.9467 21C18.9467 21.8133 18.3467 22.48 17.5867 22.48C16.84 22.48 16.2267 21.8133 16.2267 21ZM31.6667 35V11.08C31.6667 9.56 30.44 8.33333 28.9333 8.33333H11.0667C9.56 8.33333 8.33333 9.56 8.33333 11.08V29.1067C8.33333 30.6267 9.56 31.8533 11.0667 31.8533H26.1867L25.48 29.3867C27.5605 31.3208 28.2262 31.9443 28.9037 32.555C29.4967 33.0897 30.0987 33.6143 31.6667 35ZM25.9467 15.9467C25.9467 15.9467 27.8667 19.4267 27.8667 23.72C27.8667 23.72 26.7333 25.6533 23.7867 25.7467C23.7867 25.7467 23.3067 25.1733 22.9067 24.6667C24.6533 24.1733 25.32 23.08 25.32 23.08C24.7733 23.44 24.2533 23.6933 23.7867 23.8667C20.914 25.0732 17.7172 24.6603 15.4667 23.4C15.4601 23.3957 15.4362 23.3818 15.401 23.3617C15.2905 23.2982 15.0687 23.1707 14.92 23.0667C14.92 23.0667 15.56 24.1333 17.2533 24.64C16.8533 25.1467 16.36 25.7467 16.36 25.7467C13.4133 25.6533 12.2933 23.72 12.2933 23.72C12.2933 19.4267 14.2133 15.9467 14.2133 15.9467C16.1333 14.5067 17.96 14.5467 17.96 14.5467L18.0933 14.7067C15.6933 15.4 14.5867 16.4533 14.5867 16.4533C14.5867 16.4533 14.88 16.2933 15.3733 16.0667C18.4457 14.7171 22.1662 14.7174 25.3333 16.4533C25.3333 16.4533 24.28 15.4533 22.0133 14.76L22.2 14.5467C22.2 14.5467 24.0267 14.5067 25.9467 15.9467Z" fill="#8492CE"/>
</svg>
