<svg width="40" height="40" viewBox="0 0 40 40" fill="none" xmlns="http://www.w3.org/2000/svg">
<path d="M23.2143 21.6071C23.2143 22.0334 23.3836 22.4422 23.685 22.7436C23.9864 23.045 24.3952 23.2143 24.8214 23.2143C25.2477 23.2143 25.6565 23.045 25.9579 22.7436C26.2592 22.4422 26.4286 22.0334 26.4286 21.6071C26.4286 21.1809 26.2592 20.7721 25.9579 20.4707C25.6565 20.1693 25.2477 20 24.8214 20C24.3952 20 23.9864 20.1693 23.685 20.4707C23.3836 20.7721 23.2143 21.1809 23.2143 21.6071ZM29.6429 16.7857C29.3387 16.7855 29.0407 16.8719 28.7838 17.0347C28.5269 17.1976 28.3216 17.4302 28.192 17.7054C29.0312 18.3438 29.7277 19.0759 30.2411 19.8839C30.5882 19.7455 30.8762 19.4903 31.0554 19.1624C31.2347 18.8345 31.294 18.4544 31.2232 18.0874C31.1523 17.7205 30.9557 17.3898 30.6673 17.1522C30.3788 16.9146 30.0166 16.785 29.6429 16.7857ZM20 0C8.95536 0 0 8.95536 0 20C0 31.0446 8.95536 40 20 40C31.0446 40 40 31.0446 40 20C40 8.95536 31.0446 0 20 0ZM30.9375 21.3348C31.1429 21.9375 31.25 22.567 31.25 23.2143C31.25 27.6518 26.2143 31.25 20 31.25C13.7857 31.25 8.75 27.6518 8.75 23.2143C8.75 22.567 8.85714 21.9375 9.0625 21.3348C8.38784 21.0374 7.83593 20.517 7.49929 19.861C7.16265 19.205 7.06175 18.4533 7.21349 17.7317C7.36523 17.0102 7.76039 16.3627 8.33273 15.8979C8.90508 15.4331 9.61982 15.1791 10.3571 15.1786C11.567 15.1786 12.6161 15.8437 13.1652 16.8304C14.7812 15.9464 16.7455 15.3661 18.8839 15.2188L21.4911 9.36607C21.683 8.92857 22.1696 8.70536 22.6295 8.83929L26.7188 10.0223C26.9734 9.54951 27.3785 9.1752 27.8699 8.9587C28.3614 8.74219 28.911 8.69587 29.4318 8.82708C29.9525 8.95829 30.4146 9.25952 30.7447 9.68305C31.0749 10.1066 31.2543 10.6282 31.2545 11.1652C31.2545 12.4955 30.1741 13.5759 28.8437 13.5759C27.7946 13.5759 26.9018 12.9018 26.5714 11.9643L22.9018 10.9062L20.9821 15.2143C23.1741 15.3482 25.1875 15.933 26.8393 16.8348C27.3884 15.8482 28.4375 15.183 29.6473 15.183C31.4241 15.183 32.8616 16.6205 32.8616 18.3973C32.8571 19.7054 32.067 20.8348 30.9375 21.3348ZM23.2902 25.0402C22.625 25.5625 21.3125 26.125 20 26.125C18.6875 26.125 17.3705 25.5625 16.7098 25.0402C16.2946 24.7143 15.6964 24.7857 15.3705 25.2009C15.0446 25.6161 15.1161 26.2143 15.5312 26.5402C16.6786 27.4509 18.433 28.0357 20 28.0357C21.567 28.0357 23.3214 27.4509 24.4732 26.5402C24.8884 26.2143 24.9598 25.6116 24.6339 25.2009C24.4769 25.0016 24.2472 24.8728 23.9953 24.8427C23.7434 24.8126 23.4898 24.8836 23.2902 25.0402ZM10.3571 16.7857C9.98344 16.785 9.62117 16.9146 9.33272 17.1522C9.04427 17.3898 8.8477 17.7205 8.77685 18.0874C8.706 18.4544 8.76531 18.8345 8.94457 19.1624C9.12383 19.4903 9.41181 19.7455 9.75893 19.8839C10.2723 19.0759 10.9688 18.3438 11.808 17.7054C11.6784 17.4302 11.4731 17.1976 11.2162 17.0347C10.9593 16.8719 10.6613 16.7855 10.3571 16.7857ZM13.5714 21.6071C13.5714 22.0334 13.7408 22.4422 14.0421 22.7436C14.3435 23.045 14.7523 23.2143 15.1786 23.2143C15.6048 23.2143 16.0136 23.045 16.315 22.7436C16.6164 22.4422 16.7857 22.0334 16.7857 21.6071C16.7857 21.1809 16.6164 20.7721 16.315 20.4707C16.0136 20.1693 15.6048 20 15.1786 20C14.7523 20 14.3435 20.1693 14.0421 20.4707C13.7408 20.7721 13.5714 21.1809 13.5714 21.6071Z" fill="#8492CE"/>
</svg>
