<svg width="1280" height="179" viewBox="0 0 1280 179" fill="none" preserveAspectRatio="none"
     xmlns="http://www.w3.org/2000/svg">
    <mask id="mask0" mask-type="alpha" maskUnits="userSpaceOnUse" x="0" y="0" width="1280" height="179">
        <path d="M0 0H1280V179C1280 179 1092.5 112.5 640 112.5C187.5 112.5 0 179 0 179V0Z" fill="#E6EDFE"/>
    </mask>
    <g mask="url(#mask0)">
        <rect width="1280" height="373" fill="#9289FF"/>
        <path opacity="0.3"
              d="M859.077 91.1924C864.814 84.6241 892.319 51.8273 887.077 8.8192C885.375 -4.76323 880.74 -17.747 873.481 -29.2709M388.729 101.308C387.641 102.783 370.902 124.834 342.968 123.758C317.953 122.769 304.547 104.067 303 101.837"
              stroke="#F1F5FD" stroke-width="3" stroke-linecap="round" stroke-linejoin="round" stroke-dasharray="9 9"/>
        <circle opacity="0.4" cx="1232" cy="245" r="212" fill="url(#paint0_linear)"/>
        <circle opacity="0.6" cx="1181" cy="249" r="211.5" stroke="white"/>
        <circle opacity="0.4" cx="72.5" cy="255.5" r="226.5" fill="url(#paint1_linear)"/>
        <path opacity="0.15"
              d="M-58 -16.0109L810 -143C810 -143 496.4 23.2063 378.8 40.0137C261.2 56.821 188.4 30.6762 139.867 127.786C91.3333 224.895 -58 148.328 -58 148.328V-16.0109Z"
              fill="url(#paint2_linear)"/>
        <path opacity="0.6"
              d="M-108.5 153.02V-10.5788L756.19 -137.084C755.891 -136.926 755.566 -136.756 755.217 -136.572C752.892 -135.351 749.466 -133.558 745.065 -131.269C736.261 -126.692 723.553 -120.135 707.936 -112.214C676.702 -96.3707 633.832 -75.0721 587.288 -53.2487C540.743 -31.4248 490.529 -9.07837 444.606 8.86143C398.671 26.8055 357.068 40.3257 327.729 44.5187C299.026 48.6209 272.993 50.1626 249.312 51.565L247.65 51.6635C223.536 53.0928 201.859 54.4364 182.336 58.2959C162.804 62.1572 145.404 68.5408 129.84 80.0649C114.276 91.5891 100.58 108.231 88.4194 132.562C76.3516 156.708 58.0318 170.045 37.3265 176.486C16.6034 182.932 -6.52768 182.474 -28.187 178.979C-49.8418 175.485 -69.9904 168.961 -84.7293 163.307C-92.0975 160.481 -98.1109 157.874 -102.281 155.973C-104.366 155.023 -105.99 154.25 -107.093 153.714C-107.644 153.447 -108.064 153.238 -108.347 153.097C-108.403 153.069 -108.454 153.043 -108.5 153.02Z"
              stroke="white"/>
        <path opacity="0.6"
              d="M1135 71C1133.69 67.4816 1134.54 68.3193 1131 66.979C1134.54 65.6806 1133.69 66.5183 1135 63C1136.31 66.5183 1135.46 65.6806 1139 66.979C1135.51 68.3193 1136.35 67.4816 1135 71Z"
              fill="white"/>
        <path opacity="0.6"
              d="M442 28C440.695 24.4816 441.537 25.3193 438 23.979C441.537 22.6806 440.695 23.5183 442 20C443.305 23.5183 442.463 22.6806 446 23.979C442.505 25.3193 443.347 24.4816 442 28Z"
              fill="white"/>
        <path opacity="0.6"
              d="M248 82.4396L248.056 74.1565C248.057 73.8475 248.17 73.5519 248.369 73.3349C248.568 73.1179 248.837 72.9975 249.116 73L254.955 73.0486C255.234 73.0503 255.501 73.175 255.697 73.395C255.893 73.615 256.002 73.9123 256 74.2213L255.944 82.5044C255.942 82.7025 255.835 82.8806 255.67 82.959C255.506 83.0374 255.315 83.0014 255.183 82.8672L252.296 79.874C252.123 79.6974 251.857 79.6974 251.684 79.874L248.756 82.8218C248.622 82.9573 248.428 82.9912 248.263 82.9078C248.099 82.8244 247.995 82.64 248 82.4396Z"
              fill="white"/>
        <path opacity="0.6"
              d="M901 118.44L901.056 110.157C901.057 109.848 901.17 109.552 901.369 109.335C901.568 109.118 901.837 108.997 902.116 109L907.955 109.049C908.234 109.05 908.501 109.175 908.697 109.395C908.893 109.615 909.002 109.912 909 110.221L908.944 118.504C908.942 118.703 908.835 118.881 908.67 118.959C908.506 119.037 908.315 119.001 908.183 118.867L905.296 115.874C905.123 115.697 904.857 115.697 904.684 115.874L901.756 118.822C901.622 118.957 901.428 118.991 901.263 118.908C901.099 118.824 900.995 118.64 901 118.44Z"
              fill="white"/>
        <path opacity="0.3" d="M705.245 19H697.745L694 25L697.745 31H705.245L709 25L705.245 19Z" fill="#F1F5FD"/>
        <g opacity="0.4">
            <path d="M449.15 73.9916L447.646 73.1464C447.44 73.0304 447.274 72.8573 447.168 72.6458L446.394 71.104C445.991 70.303 445.072 69.8973 444.209 70.1395L442.548 70.6057C442.32 70.6697 442.081 70.6641 441.856 70.5897L440.218 70.0471C439.367 69.7654 438.431 70.1281 437.992 70.9096L437.147 72.414C437.031 72.6203 436.858 72.7857 436.646 72.8919L435.104 73.6665C434.303 74.0689 433.897 74.9875 434.139 75.8508L434.606 77.512C434.67 77.7399 434.664 77.9792 434.59 78.204L434.047 79.842C433.765 80.6929 434.128 81.6293 434.91 82.0684L436.414 82.9135C436.62 83.0295 436.786 83.2026 436.892 83.4141L437.666 84.9559C438.069 85.757 438.988 86.1625 439.851 85.9205L440.866 85.6356L440.693 92.0944C440.689 92.2702 440.783 92.4294 440.94 92.51C441.096 92.5903 441.28 92.5748 441.42 92.4691L443.218 91.1177C443.225 91.1118 443.235 91.1124 443.242 91.118L444.964 92.564C445.093 92.6718 445.265 92.6998 445.42 92.6399C445.427 92.6371 445.434 92.6341 445.442 92.6309C445.602 92.5592 445.705 92.4057 445.711 92.2283L445.893 85.4088C445.958 85.3286 446.017 85.2425 446.069 85.1503L446.914 83.6461C447.021 83.4555 447.177 83.3006 447.367 83.1943L451.649 87.6472L449.903 87.8126C449.571 87.8442 449.309 88.0968 449.264 88.4272L449.031 90.1654L447.02 88.0747C446.887 87.9366 446.668 87.9324 446.53 88.0651C446.392 88.1977 446.388 88.4172 446.521 88.5551L448.876 91.0042C448.998 91.13 449.178 91.1741 449.345 91.1191C449.352 91.1165 449.36 91.114 449.367 91.1112C449.522 91.0512 449.63 90.9142 449.652 90.7482L449.951 88.5197C449.952 88.5106 449.959 88.5037 449.969 88.5026L452.207 88.2908C452.382 88.2743 452.529 88.1617 452.59 87.997C452.651 87.8321 452.614 87.651 452.492 87.5237L448.013 82.8668L448.956 82.3933C449.757 81.9909 450.163 81.0724 449.921 80.2092L449.454 78.5477C449.39 78.3199 449.396 78.0808 449.47 77.8559L450.013 76.218C450.295 75.367 449.932 74.4306 449.15 73.9916ZM445.031 91.7148L443.688 90.5869C443.432 90.3729 443.068 90.3633 442.801 90.5636L441.399 91.6174L441.565 85.4416C441.777 85.3924 441.997 85.4016 442.204 85.4702L443.842 86.0128C444.268 86.1538 444.714 86.1335 445.11 85.9803C445.135 85.9705 445.16 85.96 445.185 85.949L445.031 91.7148ZM449.355 76.0001L448.812 77.638C448.694 77.9944 448.686 78.3738 448.787 78.7351L449.253 80.3964C449.406 80.9408 449.15 81.5201 448.645 81.7739L447.29 82.4544C447.285 82.4569 447.28 82.4595 447.275 82.4625L447.103 82.5486C446.768 82.7172 446.493 82.9792 446.309 83.3065L445.464 84.8107C445.187 85.3037 444.597 85.5325 444.06 85.3547L442.422 84.8122C442.066 84.6942 441.686 84.6853 441.325 84.7869L441.139 84.8389C441.134 84.8402 441.129 84.8417 441.124 84.8433L439.664 85.2529C439.119 85.4057 438.54 85.1499 438.286 84.6446L437.512 83.103C437.343 82.7674 437.081 82.493 436.753 82.3092L435.249 81.4641C434.756 81.1871 434.527 80.5965 434.705 80.0598L435.248 78.4219C435.366 78.0655 435.375 77.6861 435.273 77.3246L434.807 75.6633C434.654 75.119 434.91 74.5397 435.415 74.2858L436.957 73.5113C437.293 73.3427 437.567 73.0807 437.751 72.7534L438.596 71.2492C438.734 71.0028 438.951 70.8222 439.201 70.7256C439.45 70.629 439.732 70.6162 440 70.7052L441.638 71.2477C441.994 71.3657 442.374 71.3746 442.735 71.273L444.397 70.8068C444.941 70.6541 445.52 70.9099 445.774 71.4151L446.549 72.9569C446.717 73.2925 446.979 73.5669 447.307 73.7507L448.811 74.5958C449.304 74.8728 449.533 75.4633 449.355 76.0001Z"
                  fill="white"/>
        </g>
        <g opacity="0.4">
            <path d="M1038.82 27.7472L1038.31 25.9221C1038.24 25.6716 1038.25 25.4087 1038.33 25.1619L1038.92 23.3625C1039.23 22.4276 1038.84 21.3988 1037.98 20.9164L1036.32 19.9879C1036.1 19.8606 1035.92 19.6703 1035.8 19.4379L1034.95 17.7439C1034.51 16.864 1033.5 16.4183 1032.55 16.6842L1030.72 17.1962C1030.47 17.2664 1030.21 17.2604 1029.96 17.1785L1028.16 16.5823C1027.23 16.2726 1026.2 16.6711 1025.72 17.5296L1024.79 19.1822C1024.66 19.4089 1024.47 19.5904 1024.24 19.7073L1022.55 20.5581C1021.67 21.0002 1021.22 22.0093 1021.49 22.9575L1022 24.7827C1022.07 25.0332 1022.06 25.2961 1021.98 25.5429L1021.38 27.3422C1021.07 28.2771 1021.47 29.3057 1022.33 29.7884L1023.34 30.356L1018.19 35.2385C1018.05 35.3716 1018 35.5687 1018.06 35.7528C1018.12 35.9367 1018.27 36.0678 1018.46 36.0944L1020.91 36.441C1020.92 36.4425 1020.93 36.4507 1020.93 36.4603L1021.14 38.9216C1021.16 39.1048 1021.27 39.2606 1021.44 39.3342C1021.44 39.3377 1021.45 39.341 1021.46 39.3442C1021.64 39.413 1021.84 39.3739 1021.98 39.2405L1027.42 34.0851C1027.53 34.0731 1027.65 34.052 1027.76 34.0207L1029.58 33.5088C1029.82 33.4438 1030.06 33.445 1030.29 33.5097L1030.15 40.2957L1028.67 39.0676C1028.39 38.8343 1027.99 38.8265 1027.7 39.0484L1026.16 40.2175L1026.23 37.0315C1026.23 36.8211 1026.06 36.6475 1025.85 36.6432C1025.64 36.639 1025.47 36.8062 1025.47 37.0165L1025.39 40.7486C1025.39 40.9414 1025.49 41.1151 1025.67 41.2019C1025.67 41.2058 1025.68 41.2097 1025.69 41.2132C1025.86 41.2868 1026.05 41.2646 1026.19 41.1529L1028.16 39.6539C1028.17 39.6478 1028.18 39.6482 1028.18 39.6546L1030.09 41.2289C1030.24 41.352 1030.44 41.3787 1030.61 41.2983C1030.79 41.2179 1030.9 41.0481 1030.9 40.8544L1031.04 33.7579L1032.14 34.1222C1033.08 34.432 1034.11 34.0337 1034.59 33.1751L1035.52 31.5224C1035.65 31.2957 1035.84 31.1143 1036.07 30.9975L1037.76 30.1466C1038.64 29.7046 1039.09 28.6955 1038.82 27.7472ZM1021.85 38.3136L1021.69 36.3938C1021.65 36.0292 1021.38 35.7384 1021.02 35.6871L1019.11 35.4166L1024.03 30.7481C1024.24 30.8745 1024.4 31.0524 1024.51 31.2668L1025.36 32.9608C1025.58 33.4009 1025.94 33.7322 1026.37 33.9205C1026.4 33.9326 1026.42 33.9439 1026.45 33.9547L1021.85 38.3136ZM1037.42 29.4663L1035.73 30.3171C1035.36 30.5021 1035.06 30.79 1034.85 31.1494L1033.93 32.802C1033.62 33.3435 1032.97 33.5948 1032.38 33.3994L1030.8 32.8759C1030.8 32.8736 1030.79 32.8715 1030.78 32.8697L1030.58 32.8034C1030.19 32.6737 1029.78 32.664 1029.38 32.7754L1027.55 33.2873C1026.96 33.4551 1026.32 33.174 1026.04 32.6189L1025.19 30.9251C1025 30.5566 1024.72 30.2549 1024.36 30.053L1024.17 29.9492C1024.17 29.9461 1024.16 29.9434 1024.16 29.9407L1022.7 29.1244C1022.16 28.8201 1021.91 28.1713 1022.11 27.5817L1022.7 25.7825C1022.83 25.3909 1022.84 24.9742 1022.73 24.5771L1022.22 22.752C1022.05 22.1538 1022.33 21.5172 1022.89 21.2386L1024.58 20.3877C1024.95 20.2027 1025.25 19.9148 1025.45 19.5552L1026.38 17.9026C1026.69 17.3611 1027.34 17.1099 1027.92 17.3052L1029.72 17.9014C1030.12 18.0311 1030.53 18.0408 1030.93 17.9294L1032.75 17.4175C1033.05 17.3337 1033.36 17.3619 1033.63 17.4806C1033.9 17.5992 1034.13 17.8083 1034.27 18.0859L1035.12 19.7797C1035.3 20.1482 1035.59 20.4499 1035.95 20.6518L1037.6 21.5803C1038.15 21.8846 1038.4 22.5333 1038.2 23.123L1037.61 24.9223C1037.48 25.3139 1037.47 25.7307 1037.58 26.1278L1038.09 27.9528C1038.26 28.5509 1037.98 29.1873 1037.42 29.4663Z"
                  fill="white"/>
        </g>
    </g>
    <defs>
        <linearGradient id="paint0_linear" x1="1256" y1="33" x2="1071.5" y2="163" gradientUnits="userSpaceOnUse">
            <stop offset="0.00437431" stop-color="white" stop-opacity="0.85"/>
            <stop offset="1" stop-color="white" stop-opacity="0"/>
        </linearGradient>
        <linearGradient id="paint1_linear" x1="207.5" y1="77.5" x2="-17.5" y2="92" gradientUnits="userSpaceOnUse">
            <stop stop-color="white" stop-opacity="0.85"/>
            <stop offset="1" stop-color="white" stop-opacity="0"/>
        </linearGradient>
        <linearGradient id="paint2_linear" x1="286" y1="17" x2="83.1503" y2="338.362" gradientUnits="userSpaceOnUse">
            <stop offset="0.00437431" stop-color="white" stop-opacity="0.85"/>
            <stop offset="1" stop-color="white" stop-opacity="0"/>
        </linearGradient>
    </defs>
</svg>
